<?xml version="1.0" encoding="utf-8"?>
<!-- Generator: Adobe Illustrator 25.2.3, SVG Export Plug-In . SVG Version: 6.00 Build 0)  -->
<svg version="1.1" id="_x32_" xmlns="http://www.w3.org/2000/svg" xmlns:xlink="http://www.w3.org/1999/xlink" x="0px" y="0px"
	 viewBox="0 0 512 512" style="enable-background:new 0 0 512 512;" xml:space="preserve">
<style type="text/css">
	.st0{fill:#FFFFFF;}
</style>
<g>
	<rect x="293.2" y="307.2" class="st0" width="131.6" height="113"/>
	<rect x="87.2" y="308.9" class="st0" width="154.4" height="17.2"/>
	<rect x="87.2" y="401.3" class="st0" width="154.4" height="17.2"/>
	<rect x="87.2" y="355.1" class="st0" width="154.4" height="17.2"/>
	<path class="st0" d="M416.4,0H95.6C42.8,0,0,42.8,0,95.6v303.7C0,461.5,50.5,512,112.7,512h286.5c62.3,0,112.7-50.5,112.7-112.7
		V95.6C512,42.8,469.2,0,416.4,0z M464.8,399.3c0,18.1-7.3,34.4-19.2,46.3c-11.9,11.9-28.2,19.2-46.3,19.2H112.7
		c-18.2,0-34.4-7.3-46.3-19.2c-11.9-11.9-19.2-28.2-19.2-46.3V118.7h417.6L464.8,399.3L464.8,399.3z"/>
	<path class="st0" d="M89,267.9h34.6c19.7,0,31.6-8.6,31.6-26.5c0-10.9-6.2-18.4-12.2-20.6v-0.3c6-3.4,10.6-9.5,10.6-19.4
		c0-14.5-9.3-24.3-29.1-24.3H89c-0.8,0-1.3,0.5-1.3,1.3v88.5C87.6,267.4,88.2,267.9,89,267.9z M107.3,193.5c0-0.5,0.3-0.8,0.8-0.8
		h13.9c7.5,0,11.9,3.9,11.9,10.6c0,6.7-4.4,10.7-11.9,10.7h-13.9c-0.6,0-0.8-0.3-0.8-0.8V193.5z M107.3,230c0-0.5,0.3-0.8,0.8-0.8
		h15c8.1,0,12.3,4.4,12.3,11.4c0,7.1-4.3,11.4-12.3,11.4h-15c-0.6,0-0.8-0.3-0.8-0.8V230z"/>
	<path class="st0" d="M181.5,267.9h59.4c0.8,0,1.3-0.5,1.3-1.3v-14.9c0-0.8-0.5-1.3-1.3-1.3h-40.2c-0.5,0-0.8-0.3-0.8-0.8v-71.4
		c0-0.8-0.5-1.3-1.3-1.3h-17c-0.8,0-1.3,0.5-1.3,1.3v88.5C180.2,267.4,180.7,267.9,181.5,267.9z"/>
	<path class="st0" d="M292.7,269.4c16,0,28.6-7.4,33.3-22.1c2-6.3,2.5-11.4,2.5-24.9c0-13.5-0.5-18.6-2.5-24.9
		c-4.7-14.7-17.3-22.1-33.3-22.1c-16,0-28.6,7.4-33.2,22.1c-2,6.3-2.6,11.4-2.6,24.9s0.5,18.6,2.6,24.9
		C264.1,262,276.8,269.4,292.7,269.4z M278.4,202.7c2-6.3,6.8-10.1,14.3-10.1c7.5,0,12.3,3.8,14.3,10.1c1.1,3.2,1.5,7.6,1.5,19.6
		c0,11.9-0.4,16.4-1.5,19.6c-2,6.3-6.8,10.1-14.3,10.1c-7.5,0-12.3-3.8-14.3-10.1c-1.1-3.2-1.5-7.6-1.5-19.6
		C276.9,210.4,277.3,206,278.4,202.7z"/>
	<path class="st0" d="M388,269.4c16.1,0,28.7-8.2,33.3-22.8c1.6-5,2.3-12.5,2.3-20.5v-7.5c0-0.8-0.5-1.3-1.3-1.3h-31.4
		c-0.8,0-1.3,0.5-1.3,1.3v12.9c0,0.8,0.5,1.3,1.3,1.3h12.3c0.5,0,0.8,0.3,0.8,0.8c0,3.9-0.4,6.7-1.1,9c-1.9,6-7.8,9.4-14.6,9.4
		c-7.9,0-12.9-3.8-14.9-10.1c-1.1-3.2-1.5-7.6-1.5-19.6c0-11.9,0.4-16.2,1.5-19.4c2-6.3,6.8-10.2,14.6-10.2c7.5,0,12,3.2,15.7,9.4
		c0.3,0.7,0.9,0.9,1.9,0.7l14.3-6c0.8-0.4,0.9-1.2,0.5-2c-4.3-11-15.4-19.4-32.4-19.4c-16.2,0-28.8,7.4-33.5,22.1
		c-2,6.3-2.6,11.4-2.6,24.9s0.5,18.6,2.6,24.9C359.1,262,371.7,269.4,388,269.4z"/>
</g>
</svg>
