<?xml version="1.0" encoding="UTF-8" standalone="no"?><!DOCTYPE svg PUBLIC "-//W3C//DTD SVG 1.1//EN" "http://www.w3.org/Graphics/SVG/1.1/DTD/svg11.dtd"><svg width="100%" height="100%" viewBox="0 0 100 100" version="1.1" xmlns="http://www.w3.org/2000/svg" xmlns:xlink="http://www.w3.org/1999/xlink" xml:space="preserve" xmlns:serif="http://www.serif.com/" style="fill-rule:evenodd;clip-rule:evenodd;stroke-linejoin:round;stroke-miterlimit:2;"><path d="M50,0c-27.429,0 -50,22.571 -50,50c0,27.429 22.571,50 50,50c27.429,0 50,-22.571 50,-50c0,-27.429 -22.571,-50 -50,-50Zm13.179,90.763l-0.387,-0c-0.588,0.033 -1.165,-0.179 -1.592,-0.584c-0.395,-0.417 -0.605,-0.976 -0.583,-1.55l-0,-5.858c0.025,-1.946 0.041,-3.917 0.041,-5.9c-0.006,-1.45 -0.218,-2.893 -0.629,-4.283c-0.389,-1.406 -1.173,-2.672 -2.258,-3.646c2.904,-0.281 5.759,-0.94 8.492,-1.963c2.305,-0.876 4.39,-2.248 6.108,-4.016c1.696,-1.78 2.958,-3.93 3.687,-6.275c0.887,-2.873 1.309,-5.869 1.25,-8.875c0.017,-2.099 -0.351,-4.184 -1.083,-6.15c-0.744,-1.983 -1.87,-3.801 -3.313,-5.35c0.312,-0.782 0.538,-1.595 0.675,-2.425c0.138,-0.834 0.209,-1.675 0.209,-2.517c-0,-1.084 -0.125,-2.167 -0.375,-3.221c-0.227,-1.081 -0.535,-2.144 -0.921,-3.179c-0.147,-0.058 -0.304,-0.086 -0.463,-0.083l-0.458,-0c-0.958,0.008 -1.9,0.166 -2.808,0.462c-1.001,0.292 -1.98,0.654 -2.929,1.083c-0.945,0.424 -1.864,0.901 -2.754,1.43c-0.896,0.529 -1.688,1.037 -2.388,1.508c-7.009,-1.954 -14.42,-1.954 -21.429,-0c-0.782,-0.523 -1.577,-1.026 -2.383,-1.508c-0.903,-0.534 -1.838,-1.009 -2.8,-1.425c-0.948,-0.444 -1.93,-0.808 -2.938,-1.088c-0.89,-0.294 -1.821,-0.45 -2.758,-0.462l-0.459,-0c-0.156,-0.003 -0.312,0.026 -0.458,0.083c-0.391,1.037 -0.712,2.099 -0.958,3.179c-0.225,1.058 -0.334,2.138 -0.338,3.221c0,0.842 0.071,1.683 0.213,2.517c0.137,0.829 0.358,1.641 0.666,2.425c-1.439,1.551 -2.56,3.371 -3.3,5.354c-0.736,1.966 -1.107,4.05 -1.096,6.15c-0.058,2.99 0.353,5.97 1.217,8.833c0.754,2.346 2.013,4.5 3.683,6.317c1.73,1.758 3.813,3.125 6.109,4.016c2.721,1.042 5.571,1.709 8.471,1.984c-0.81,0.734 -1.452,1.633 -1.884,2.637c-0.41,0.993 -0.69,2.035 -0.833,3.1c-1.529,0.732 -3.201,1.116 -4.896,1.125c-1.574,0.063 -3.128,-0.375 -4.437,-1.25c-1.257,-0.931 -2.321,-2.097 -3.134,-3.433c-0.363,-0.561 -0.77,-1.094 -1.216,-1.592c-0.471,-0.524 -0.99,-1.002 -1.55,-1.429c-0.553,-0.413 -1.158,-0.749 -1.8,-1c-0.632,-0.277 -1.315,-0.42 -2.005,-0.421c-0.166,0.004 -0.333,0.021 -0.5,0.042c-0.227,-0.001 -0.454,0.027 -0.675,0.083c-0.193,0.051 -0.377,0.136 -0.541,0.25c-0.152,0.084 -0.248,0.243 -0.25,0.417c0.035,0.406 0.249,0.775 0.583,1.008c0.388,0.309 0.708,0.546 0.967,0.713l0.125,0.087c0.554,0.429 1.087,0.892 1.591,1.388c0.467,0.408 0.888,0.871 1.25,1.375c0.375,0.496 0.7,1.025 0.963,1.587c0.304,0.559 0.625,1.2 0.962,1.929c0.784,1.975 2.175,3.646 3.975,4.771c1.888,1.013 4.005,1.517 6.15,1.463c0.725,-0 1.455,-0.042 2.175,-0.125c0.717,-0.117 1.43,-0.238 2.146,-0.379l0,7.262c0.002,0.031 0.002,0.061 0.002,0.092c0,1.143 -0.94,2.084 -2.083,2.084c-0.047,-0 -0.093,-0.002 -0.14,-0.005l-0.258,-0c-17.647,-5.701 -29.683,-22.238 -29.683,-40.783c-0,-23.512 19.347,-42.859 42.858,-42.859c23.512,0 42.858,19.347 42.858,42.859c0,18.545 -12.036,35.082 -29.683,40.783l0,0.021l0,-0.004Z" style="fill:#fff;fill-rule:nonzero;"/></svg>