<?xml version="1.0" encoding="UTF-8" standalone="no"?><!DOCTYPE svg PUBLIC "-//W3C//DTD SVG 1.1//EN" "http://www.w3.org/Graphics/SVG/1.1/DTD/svg11.dtd"><svg width="100%" height="100%" viewBox="0 0 798 905" version="1.1" xmlns="http://www.w3.org/2000/svg" xmlns:xlink="http://www.w3.org/1999/xlink" xml:space="preserve" xmlns:serif="http://www.serif.com/" style="fill-rule:evenodd;clip-rule:evenodd;stroke-linejoin:round;stroke-miterlimit:2;"><g><path d="M797.218,0l-72.629,813.624l-326.468,90.508l-325.569,-90.38l-72.552,-813.752l797.218,0Z" style="fill:#e44d26;fill-rule:nonzero;"/><path d="M398.609,834.952l263.802,-73.137l62.066,-695.279l-325.868,0l-0,768.416Z" style="fill:#f16529;fill-rule:nonzero;"/><path d="M257.422,266.145l141.187,0l-0,-99.804l-250.26,-0l2.389,26.775l24.53,275.031l223.341,0l-0,-99.802l-132.066,0l-9.121,-102.2Z" style="fill:#ebebeb;fill-rule:nonzero;"/><path d="M283.039,518.051l-100.187,-0l13.983,156.705l204.439,56.754l0.46,-0.128l-0,-103.837l-0.438,0.117l-111.151,-30.014l-7.106,-79.597Z" style="fill:#ebebeb;fill-rule:nonzero;"/><path d="M398.264,468.147l122.896,0l-11.584,129.438l-111.312,30.044l-0,103.833l204.602,-56.706l1.501,-16.861l23.453,-262.75l2.435,-26.8l-231.991,0l-0,99.802Z" style="fill:#fff;fill-rule:nonzero;"/><path d="M398.264,166.341l-0,99.804l241.072,0l2.002,-22.433l4.548,-50.596l2.387,-26.775l-250.009,-0Z" style="fill:#fff;fill-rule:nonzero;"/></g></svg>