<?xml version="1.0" encoding="utf-8"?>
<!-- Generator: Adobe Illustrator 25.2.3, SVG Export Plug-In . SVG Version: 6.00 Build 0)  -->
<svg version="1.1" id="Capa_1" xmlns="http://www.w3.org/2000/svg" xmlns:xlink="http://www.w3.org/1999/xlink" x="0px" y="0px"
	 viewBox="0 0 800 800" style="enable-background:new 0 0 800 800;" xml:space="preserve">
<style type="text/css">
	.st0{fill:none;}
	.st1{fill:#FFFFFF;}
	.st2{fill:#F8981D;}
</style>
<path class="st0" d="M-109.4-19.3H946.4v731.8H-109.4V-19.3z"/>
<path class="st1" d="M213.8,571.7h-28.6c-1-48.3-3.8-93.6-8.3-136.1h-0.3l-43.5,136.1h-21.8L68,435.6h-0.2
	c-3.2,40.8-5.2,86.2-6.1,136.1H35.7c1.7-60.7,5.9-117.7,12.6-170.8h35.4L125,526.4h0.3l41.5-125.5h33.9
	C208,463.2,212.4,520.1,213.8,571.7 M337.7,445.7c-11.6,63.2-27,109.1-46.1,137.7c-14.8,22.1-31.1,33.1-48.8,33.1
	c-4.7,0-10.6-1.4-17.5-4.3V597c3.4,0.5,7.3,0.8,11.9,0.8c8.3,0,14.9-2.3,20-6.8c6.1-5.6,9.1-11.8,9.1-18.7c0-4.7-2.4-14.4-7.1-29.1
	l-31.4-97.4H256l22.5,72.9c5.1,16.5,7.2,28.1,6.3,34.7c12.3-32.9,20.9-68.7,25.8-107.5L337.7,445.7L337.7,445.7L337.7,445.7z"/>
<path class="st2" d="M718.3,571.7h-81.2V400.9h27.3v149.8h53.9V571.7z M615.8,575.9l-31.4-15.5c2.8-2.3,5.4-4.8,7.8-7.6
	c13.3-15.7,20-38.9,20-69.6c0-56.5-22.2-84.8-66.5-84.8c-21.8,0-38.7,7.2-50.9,21.5c-13.3,15.7-20,38.8-20,69.3c0,30,5.9,52,17.7,66
	c10.8,12.7,27.1,19,48.8,19c8.1,0,15.6-1,22.4-3l40.9,23.8L615.8,575.9z M514.1,537.6c-6.9-11.1-10.4-29-10.4-53.6
	c0-43,13.1-64.5,39.2-64.5c13.7,0,23.7,5.1,30.1,15.4c6.9,11.1,10.4,28.8,10.4,53.1c0,43.4-13.1,65-39.2,65
	C530.5,553,520.5,547.9,514.1,537.6 M463,524.4c0,14.5-5.3,26.4-15.9,35.7c-10.6,9.3-24.9,13.9-42.7,13.9c-16.7,0-32.9-5.3-48.6-16
	l7.3-14.7c13.5,6.8,25.7,10.1,36.7,10.1c10.3,0,18.3-2.3,24.2-6.8c5.8-4.5,9.3-10.9,9.3-19c0-10.1-7.1-18.8-20.1-26.1
	c-12-6.6-35.9-20.3-35.9-20.3c-13-9.5-19.5-19.6-19.5-36.3c0-13.8,4.8-25,14.5-33.5c9.7-8.5,22.2-12.8,37.6-12.8
	c15.9,0,30.3,4.2,43.2,12.7l-6.6,14.7c-11.1-4.7-22.1-7.1-32.9-7.1c-8.8,0-15.5,2.1-20.2,6.3c-4.7,4.2-7.7,9.6-7.7,16.2
	c0,10.1,7.2,18.9,20.6,26.3c12.1,6.6,36.7,20.6,36.7,20.6C456.3,497.7,463,507.8,463,524.4"/>
<path class="st1" d="M752.5,343.7c-16.5-0.4-29.3,1.2-40,5.8c-3.1,1.2-8,1.2-8.5,5.2c1.7,1.7,1.9,4.3,3.3,6.6
	c2.5,4.1,6.8,9.7,10.7,12.6c4.3,3.3,8.7,6.6,13.2,9.5c8,5,17.1,7.9,24.9,12.8c4.6,2.9,9.1,6.6,13.6,9.7c2.2,1.7,3.7,4.3,6.6,5.4
	v-0.6c-1.5-1.9-1.9-4.5-3.3-6.6l-6.2-6c-6-8-13.4-15.1-21.5-20.8c-6.6-4.6-21.1-10.7-23.7-18.4l-0.4-0.4c4.5-0.4,9.9-2.1,14.2-3.3
	c7-1.9,13.4-1.4,20.6-3.3c3.3-0.8,6.6-1.9,9.9-2.9V347c-3.7-3.7-6.4-8.7-10.3-12.2c-10.5-9.1-22.1-18-34-25.4
	c-6.4-4.1-14.6-6.8-21.5-10.3c-2.5-1.2-6.6-1.9-8-3.9c-3.7-4.5-5.8-10.5-8.5-15.9c-6-11.3-11.8-23.9-16.9-35.9
	c-3.7-8-6-16.1-10.5-23.5c-21.3-35.1-44.4-56.3-79.9-77.2c-7.6-4.3-16.7-6.2-26.4-8.5l-15.5-0.8c-3.3-1.4-6.6-5.4-9.5-7.2
	c-11.8-7.4-42.1-23.5-50.8-2.3c-5.6,13.4,8.3,26.6,13,33.4c3.5,4.7,8.1,10.1,10.5,15.5c1.5,3.5,1.9,7.2,3.3,10.9
	c3.3,9.1,6.4,19.2,10.7,27.7c2.3,4.3,4.7,8.9,7.6,12.8c1.7,2.3,4.5,3.3,5.2,7c-2.9,4.1-3.1,10.3-4.8,15.5c-7.4,23.3-4.5,52.2,6,69.3
	c3.3,5.2,11.1,16.5,21.7,12.2c9.3-3.7,7.2-15.5,9.9-25.8c0.6-2.5,0.2-4.1,1.4-5.8v0.4c2.9,5.8,5.8,11.3,8.5,17.1
	c6.4,10.1,17.5,20.6,26.8,27.6c4.9,3.7,8.9,10.1,15.1,12.4v-0.6h-0.4c-1.3-1.9-3.1-2.7-4.7-4.1c-3.7-3.7-7.8-8.3-10.7-12.4
	c-8.7-11.6-16.3-24.4-23.1-37.6c-3.3-6.4-6.2-13.4-8.9-19.8c-1.2-2.5-1.2-6.2-3.3-7.4c-3.1,4.5-7.6,8.5-9.9,14
	c-3.9,8.9-4.3,19.8-5.8,31.2l-0.8,0.4c-6.6-1.7-8.9-8.5-11.4-14.2c-6.2-14.7-7.2-38.2-1.9-55.1c1.4-4.3,7.7-17.9,5.2-22.1
	c-1.2-3.9-5.4-6.2-7.6-9.3c-2.7-3.9-5.6-8.9-7.4-13.2c-4.9-11.6-7.4-24.3-12.8-35.9c-2.5-5.4-6.8-10.9-10.3-15.9
	c-3.9-5.6-8.3-9.5-11.4-16.1c-1-2.3-2.5-6-0.8-8.5c0.4-1.7,1.2-2.3,2.9-2.7c2.7-2.3,10.3,0.6,13,1.9c7.7,3.1,14,6,20.4,10.3
	c2.9,2.1,6,6,9.7,7h4.3c6.6,1.4,14,0.4,20.2,2.3c10.9,3.5,20.8,8.7,29.7,14.2c27,17.1,49.3,41.5,64.4,70.6c2.5,4.7,3.5,9.1,5.8,14
	c4.3,10.1,9.7,20.4,14,30.3c4.3,9.7,8.5,19.6,14.7,27.6c3.1,4.3,15.5,6.6,21.1,8.9c4.1,1.9,10.5,3.5,14.2,5.8c7,4.3,14,9.3,20.6,14
	C741.6,334.4,751.9,339.6,752.5,343.7 M542.1,164.4c-2.8,0-5.7,0.3-8.4,1v0.4h0.4c1.7,3.3,4.6,5.6,6.6,8.5c1.7,3.3,3.1,6.6,4.7,9.9
	l0.4-0.4c2.9-2.1,4.4-5.4,4.4-10.3c-1.3-1.5-1.4-2.9-2.5-4.3C546.4,167.1,543.7,166.1,542.1,164.4"/>
<path class="st2" d="M772.2,571.7h4.3v-20.9h-6.4l-5.2,14.3l-5.7-14.3H753v20.9h4v-15.9h0.2l6,15.9h3.1l5.9-15.9L772.2,571.7
	L772.2,571.7z M737.8,571.7h4.5v-17.4h5.9v-3.6h-16.6v3.6h6.2L737.8,571.7L737.8,571.7z"/>
</svg>
