<?xml version="1.0" encoding="UTF-8" standalone="no"?>
<!DOCTYPE svg PUBLIC "-//W3C//DTD SVG 1.1//EN" "http://www.w3.org/Graphics/SVG/1.1/DTD/svg11.dtd">
<svg width="100%" height="100%" viewBox="0 0 809 809" version="1.1" xmlns="http://www.w3.org/2000/svg" xmlns:xlink="http://www.w3.org/1999/xlink" xml:space="preserve" xmlns:serif="http://www.serif.com/" style="fill-rule:evenodd;clip-rule:evenodd;stroke-linejoin:round;stroke-miterlimit:2;">
    <g transform="matrix(4.16667,0,0,4.16667,0,0)">
        <g transform="matrix(1.12713,0,0,1.12713,-11.9228,-12.1477)">
            <clipPath id="_clip1">
                <path d="M96.637,142.326C144.166,142.326 182.697,122.057 182.697,97.056C182.697,72.054 144.166,51.785 96.637,51.785C49.109,51.785 10.578,72.054 10.578,97.056C10.578,122.057 49.109,142.326 96.637,142.326Z"/>
            </clipPath>
            <g clip-path="url(#_clip1)">
                <path d="M96.637,142.326C144.166,142.326 182.697,122.057 182.697,97.056C182.697,72.054 144.166,51.785 96.637,51.785C49.109,51.785 10.578,72.054 10.578,97.056C10.578,122.057 49.109,142.326 96.637,142.326ZM182.697,142.326L182.697,51.785L10.578,51.785L10.578,142.326L182.697,142.326ZM53.608,51.785L213.306,51.785C213.306,-36.414 141.806,-107.913 53.608,-107.913C-34.591,-107.913 -106.091,-36.414 -106.091,51.785C-106.091,139.984 -34.591,211.483 53.608,211.483C141.806,211.483 213.306,139.984 213.306,51.785" style="fill:rgb(35,31,32);fill-rule:nonzero;"/>
                <path d="M53.608,51.785L165.396,51.785C165.396,-9.954 115.347,-60.004 53.608,-60.004C-8.132,-60.004 -58.181,-9.954 -58.181,51.785C-58.181,113.524 -8.132,163.574 53.608,163.574C115.347,163.574 165.396,113.524 165.396,51.785" style="fill:rgb(35,31,32);fill-rule:nonzero;"/>
                <path d="M53.608,51.785L164.523,51.785C164.523,-9.472 114.864,-59.131 53.608,-59.131C-7.649,-59.131 -57.308,-9.472 -57.308,51.785C-57.308,113.042 -7.649,162.7 53.608,162.7C114.864,162.7 164.523,113.042 164.523,51.785" style="fill:rgb(39,36,37);fill-rule:nonzero;"/>
                <path d="M53.608,51.785L163.65,51.785C163.65,-8.99 114.382,-58.257 53.608,-58.257C-7.167,-58.257 -56.435,-8.99 -56.435,51.785C-56.435,112.56 -7.167,161.827 53.608,161.827C114.382,161.827 163.65,112.56 163.65,51.785" style="fill:rgb(42,40,42);fill-rule:nonzero;"/>
                <path d="M53.608,51.785L162.776,51.785C162.776,-8.507 113.9,-57.384 53.608,-57.384C-6.685,-57.384 -55.561,-8.507 -55.561,51.785C-55.561,112.077 -6.685,160.954 53.608,160.954C113.9,160.954 162.776,112.077 162.776,51.785" style="fill:rgb(46,45,47);fill-rule:nonzero;"/>
                <path d="M53.608,51.785L161.903,51.785C161.903,-8.025 113.417,-56.511 53.608,-56.511C-6.202,-56.511 -54.688,-8.025 -54.688,51.785C-54.688,111.595 -6.202,160.08 53.608,160.08C113.417,160.08 161.903,111.595 161.903,51.785" style="fill:rgb(49,48,51);fill-rule:nonzero;"/>
                <path d="M53.608,51.785L161.03,51.785C161.03,-7.543 112.935,-55.637 53.608,-55.637C-5.72,-55.637 -53.815,-7.543 -53.815,51.785C-53.815,111.112 -5.72,159.207 53.608,159.207C112.935,159.207 161.03,111.112 161.03,51.785" style="fill:rgb(52,52,55);fill-rule:nonzero;"/>
                <path d="M53.608,51.785L160.156,51.785C160.156,-7.06 112.453,-54.764 53.608,-54.764C-5.238,-54.764 -52.941,-7.06 -52.941,51.785C-52.941,110.63 -5.238,158.334 53.608,158.334C112.453,158.334 160.156,110.63 160.156,51.785" style="fill:rgb(55,55,59);fill-rule:nonzero;"/>
                <path d="M53.608,51.785L159.283,51.785C159.283,-6.578 111.97,-53.89 53.608,-53.89C-4.755,-53.89 -52.068,-6.578 -52.068,51.785C-52.068,110.148 -4.755,157.46 53.608,157.46C111.97,157.46 159.283,110.148 159.283,51.785" style="fill:rgb(58,58,63);fill-rule:nonzero;"/>
                <path d="M53.608,51.785L158.41,51.785C158.41,-6.096 111.488,-53.017 53.608,-53.017C-4.273,-53.017 -51.194,-6.096 -51.194,51.785C-51.194,109.665 -4.273,156.587 53.608,156.587C111.488,156.587 158.41,109.665 158.41,51.785" style="fill:rgb(61,61,66);fill-rule:nonzero;"/>
                <path d="M53.608,51.785L157.536,51.785C157.536,-5.613 111.006,-52.144 53.608,-52.144C-3.791,-52.144 -50.321,-5.613 -50.321,51.785C-50.321,109.183 -3.791,155.714 53.608,155.714C111.006,155.714 157.536,109.183 157.536,51.785" style="fill:rgb(63,64,70);fill-rule:nonzero;"/>
                <path d="M53.608,51.785L156.663,51.785C156.663,-5.131 110.523,-51.27 53.608,-51.27C-3.308,-51.27 -49.448,-5.131 -49.448,51.785C-49.448,108.701 -3.308,154.84 53.608,154.84C110.523,154.84 156.663,108.701 156.663,51.785" style="fill:rgb(65,66,72);fill-rule:nonzero;"/>
                <path d="M53.608,51.785L155.789,51.785C155.789,-4.649 110.041,-50.397 53.608,-50.397C-2.826,-50.397 -48.574,-4.649 -48.574,51.785C-48.574,108.218 -2.826,153.967 53.608,153.967C110.041,153.967 155.789,108.218 155.789,51.785" style="fill:rgb(67,69,75);fill-rule:nonzero;"/>
                <path d="M53.608,51.785L154.916,51.785C154.916,-4.166 109.559,-49.524 53.608,-49.524C-2.344,-49.524 -47.701,-4.166 -47.701,51.785C-47.701,107.736 -2.344,153.093 53.608,153.093C109.559,153.093 154.916,107.736 154.916,51.785" style="fill:rgb(69,71,78);fill-rule:nonzero;"/>
                <path d="M53.608,51.785L154.043,51.785C154.043,-3.684 109.076,-48.65 53.608,-48.65C-1.861,-48.65 -46.828,-3.684 -46.828,51.785C-46.828,107.254 -1.861,152.22 53.608,152.22C109.076,152.22 154.043,107.254 154.043,51.785" style="fill:rgb(71,73,81);fill-rule:nonzero;"/>
                <path d="M53.608,51.785L153.169,51.785C153.169,-3.202 108.594,-47.777 53.608,-47.777C-1.379,-47.777 -45.954,-3.202 -45.954,51.785C-45.954,106.771 -1.379,151.347 53.608,151.347C108.594,151.347 153.169,106.771 153.169,51.785" style="fill:rgb(73,75,84);fill-rule:nonzero;"/>
                <path d="M53.608,51.785L152.296,51.785C152.296,-2.719 108.112,-46.904 53.608,-46.904C-0.897,-46.904 -45.081,-2.719 -45.081,51.785C-45.081,106.289 -0.897,150.473 53.608,150.473C108.112,150.473 152.296,106.289 152.296,51.785" style="fill:rgb(75,78,86);fill-rule:nonzero;"/>
                <path d="M53.608,51.785L151.423,51.785C151.423,-2.237 107.629,-46.03 53.608,-46.03C-0.414,-46.03 -44.208,-2.237 -44.208,51.785C-44.208,105.807 -0.414,149.6 53.608,149.6C107.629,149.6 151.423,105.807 151.423,51.785" style="fill:rgb(77,79,88);fill-rule:nonzero;"/>
                <path d="M53.608,51.785L150.549,51.785C150.549,-1.755 107.147,-45.157 53.608,-45.157C0.068,-45.157 -43.334,-1.755 -43.334,51.785C-43.334,105.324 0.068,148.727 53.608,148.727C107.147,148.727 150.549,105.324 150.549,51.785" style="fill:rgb(78,81,90);fill-rule:nonzero;"/>
                <path d="M53.608,51.785L149.676,51.785C149.676,-1.272 106.665,-44.284 53.608,-44.284C0.55,-44.284 -42.461,-1.272 -42.461,51.785C-42.461,104.842 0.55,147.853 53.608,147.853C106.665,147.853 149.676,104.842 149.676,51.785" style="fill:rgb(79,83,93);fill-rule:nonzero;"/>
                <path d="M53.608,51.785L148.803,51.785C148.803,-0.79 106.182,-43.41 53.608,-43.41C1.033,-43.41 -41.588,-0.79 -41.588,51.785C-41.588,104.36 1.033,146.98 53.608,146.98C106.182,146.98 148.803,104.36 148.803,51.785" style="fill:rgb(81,84,95);fill-rule:nonzero;"/>
                <path d="M53.608,51.785L147.929,51.785C147.929,-0.308 105.7,-42.537 53.608,-42.537C1.515,-42.537 -40.714,-0.308 -40.714,51.785C-40.714,103.877 1.515,146.107 53.608,146.107C105.7,146.107 147.929,103.877 147.929,51.785" style="fill:rgb(82,85,97);fill-rule:nonzero;"/>
                <path d="M53.608,51.785L147.056,51.785C147.056,0.175 105.218,-41.663 53.608,-41.663C1.997,-41.663 -39.841,0.175 -39.841,51.785C-39.841,103.395 1.997,145.233 53.608,145.233C105.218,145.233 147.056,103.395 147.056,51.785" style="fill:rgb(83,87,99);fill-rule:nonzero;"/>
                <path d="M53.608,51.785L146.183,51.785C146.183,0.657 104.735,-40.79 53.608,-40.79C2.48,-40.79 -38.967,0.657 -38.967,51.785C-38.967,102.913 2.48,144.36 53.608,144.36C104.735,144.36 146.183,102.913 146.183,51.785" style="fill:rgb(84,88,101);fill-rule:nonzero;"/>
                <path d="M53.608,51.785L145.309,51.785C145.309,1.139 104.253,-39.917 53.608,-39.917C2.962,-39.917 -38.094,1.139 -38.094,51.785C-38.094,102.43 2.962,143.487 53.608,143.487C104.253,143.487 145.309,102.43 145.309,51.785" style="fill:rgb(84,89,102);fill-rule:nonzero;"/>
                <path d="M53.608,51.785L144.436,51.785C144.436,1.622 103.771,-39.043 53.608,-39.043C3.444,-39.043 -37.221,1.622 -37.221,51.785C-37.221,101.948 3.444,142.613 53.608,142.613C103.771,142.613 144.436,101.948 144.436,51.785" style="fill:rgb(85,91,104);fill-rule:nonzero;"/>
                <path d="M53.608,51.785L143.562,51.785C143.562,2.104 103.288,-38.17 53.608,-38.17C3.927,-38.17 -36.347,2.104 -36.347,51.785C-36.347,101.466 3.927,141.74 53.608,141.74C103.288,141.74 143.562,101.466 143.562,51.785" style="fill:rgb(86,92,106);fill-rule:nonzero;"/>
                <path d="M53.608,51.785L142.689,51.785C142.689,2.587 102.806,-37.297 53.608,-37.297C4.409,-37.297 -35.474,2.587 -35.474,51.785C-35.474,100.983 4.409,140.867 53.608,140.867C102.806,140.867 142.689,100.983 142.689,51.785" style="fill:rgb(87,93,108);fill-rule:nonzero;"/>
                <path d="M53.608,51.785L141.816,51.785C141.816,3.069 102.324,-36.423 53.608,-36.423C4.891,-36.423 -34.601,3.069 -34.601,51.785C-34.601,100.501 4.891,139.993 53.608,139.993C102.324,139.993 141.816,100.501 141.816,51.785" style="fill:rgb(88,94,109);fill-rule:nonzero;"/>
                <path d="M53.608,51.785L140.942,51.785C140.942,3.551 101.841,-35.55 53.608,-35.55C5.374,-35.55 -33.727,3.551 -33.727,51.785C-33.727,100.019 5.374,139.12 53.608,139.12C101.841,139.12 140.942,100.019 140.942,51.785" style="fill:rgb(89,95,111);fill-rule:nonzero;"/>
                <path d="M53.608,51.785L140.069,51.785C140.069,4.034 101.359,-34.677 53.608,-34.677C5.856,-34.677 -32.854,4.034 -32.854,51.785C-32.854,99.536 5.856,138.246 53.608,138.246C101.359,138.246 140.069,99.536 140.069,51.785" style="fill:rgb(89,96,113);fill-rule:nonzero;"/>
                <path d="M53.608,51.785L139.196,51.785C139.196,4.516 100.877,-33.803 53.608,-33.803C6.338,-33.803 -31.981,4.516 -31.981,51.785C-31.981,99.054 6.338,137.373 53.608,137.373C100.877,137.373 139.196,99.054 139.196,51.785" style="fill:rgb(89,96,114);fill-rule:nonzero;"/>
                <path d="M53.608,51.785L138.322,51.785C138.322,4.998 100.394,-32.93 53.608,-32.93C6.821,-32.93 -31.107,4.998 -31.107,51.785C-31.107,98.572 6.821,136.5 53.608,136.5C100.394,136.5 138.322,98.572 138.322,51.785" style="fill:rgb(90,97,115);fill-rule:nonzero;"/>
                <path d="M53.608,51.785L137.449,51.785C137.449,5.481 99.912,-32.057 53.608,-32.057C7.303,-32.057 -30.234,5.481 -30.234,51.785C-30.234,98.089 7.303,135.626 53.608,135.626C99.912,135.626 137.449,98.089 137.449,51.785" style="fill:rgb(90,98,117);fill-rule:nonzero;"/>
                <path d="M53.608,51.785L136.576,51.785C136.576,5.963 99.43,-31.183 53.608,-31.183C7.785,-31.183 -29.361,5.963 -29.361,51.785C-29.361,97.607 7.785,134.753 53.608,134.753C99.43,134.753 136.576,97.607 136.576,51.785" style="fill:rgb(90,99,119);fill-rule:nonzero;"/>
                <path d="M53.608,51.785L135.702,51.785C135.702,6.445 98.947,-30.31 53.608,-30.31C8.268,-30.31 -28.487,6.445 -28.487,51.785C-28.487,97.125 8.268,133.88 53.608,133.88C98.947,133.88 135.702,97.125 135.702,51.785" style="fill:rgb(91,100,120);fill-rule:nonzero;"/>
                <path d="M53.608,51.785L134.829,51.785C134.829,6.928 98.465,-29.437 53.608,-29.437C8.75,-29.437 -27.614,6.928 -27.614,51.785C-27.614,96.642 8.75,133.006 53.608,133.006C98.465,133.006 134.829,96.642 134.829,51.785" style="fill:rgb(91,101,122);fill-rule:nonzero;"/>
                <path d="M53.608,51.785L133.956,51.785C133.956,7.41 97.983,-28.563 53.608,-28.563C9.233,-28.563 -26.741,7.41 -26.741,51.785C-26.741,96.16 9.233,132.133 53.608,132.133C97.983,132.133 133.956,96.16 133.956,51.785" style="fill:rgb(91,101,123);fill-rule:nonzero;"/>
                <path d="M53.608,51.785L133.082,51.785C133.082,7.892 97.5,-27.69 53.608,-27.69C9.715,-27.69 -25.867,7.892 -25.867,51.785C-25.867,95.678 9.715,131.26 53.608,131.26C97.5,131.26 133.082,95.678 133.082,51.785" style="fill:rgb(92,102,124);fill-rule:nonzero;"/>
                <path d="M53.608,51.785L132.209,51.785C132.209,8.375 97.018,-26.816 53.608,-26.816C10.197,-26.816 -24.994,8.375 -24.994,51.785C-24.994,95.195 10.197,130.386 53.608,130.386C97.018,130.386 132.209,95.195 132.209,51.785" style="fill:rgb(92,102,126);fill-rule:nonzero;"/>
                <path d="M53.608,51.785L131.336,51.785C131.336,8.857 96.536,-25.943 53.608,-25.943C10.68,-25.943 -24.121,8.857 -24.121,51.785C-24.121,94.713 10.68,129.513 53.608,129.513C96.536,129.513 131.336,94.713 131.336,51.785" style="fill:rgb(92,103,127);fill-rule:nonzero;"/>
                <path d="M53.608,51.785L130.462,51.785C130.462,9.339 96.053,-25.07 53.608,-25.07C11.162,-25.07 -23.247,9.339 -23.247,51.785C-23.247,94.231 11.162,128.64 53.608,128.64C96.053,128.64 130.462,94.231 130.462,51.785" style="fill:rgb(92,104,129);fill-rule:nonzero;"/>
                <path d="M53.608,51.785L129.589,51.785C129.589,9.822 95.571,-24.196 53.608,-24.196C11.644,-24.196 -22.374,9.822 -22.374,51.785C-22.374,93.748 11.644,127.766 53.608,127.766C95.571,127.766 129.589,93.748 129.589,51.785" style="fill:rgb(93,104,130);fill-rule:nonzero;"/>
                <path d="M53.608,51.785L128.716,51.785C128.716,10.304 95.089,-23.323 53.608,-23.323C12.127,-23.323 -21.5,10.304 -21.5,51.785C-21.5,93.266 12.127,126.893 53.608,126.893C95.089,126.893 128.716,93.266 128.716,51.785" style="fill:rgb(93,105,131);fill-rule:nonzero;"/>
                <path d="M53.608,51.785L127.842,51.785C127.842,10.786 94.606,-22.45 53.608,-22.45C12.609,-22.45 -20.627,10.786 -20.627,51.785C-20.627,92.784 12.609,126.02 53.608,126.02C94.606,126.02 127.842,92.784 127.842,51.785" style="fill:rgb(92,105,132);fill-rule:nonzero;"/>
                <path d="M53.608,51.785L126.969,51.785C126.969,11.269 94.124,-21.576 53.608,-21.576C13.091,-21.576 -19.754,11.269 -19.754,51.785C-19.754,92.301 13.091,125.146 53.608,125.146C94.124,125.146 126.969,92.301 126.969,51.785" style="fill:rgb(92,105,134);fill-rule:nonzero;"/>
                <path d="M53.608,51.785L126.096,51.785C126.096,11.751 93.642,-20.703 53.608,-20.703C13.574,-20.703 -18.88,11.751 -18.88,51.785C-18.88,91.819 13.574,124.273 53.608,124.273C93.642,124.273 126.096,91.819 126.096,51.785" style="fill:rgb(92,106,135);fill-rule:nonzero;"/>
                <path d="M53.608,51.785L125.222,51.785C125.222,12.233 93.159,-19.83 53.608,-19.83C14.056,-19.83 -18.007,12.233 -18.007,51.785C-18.007,91.337 14.056,123.4 53.608,123.4C93.159,123.4 125.222,91.337 125.222,51.785" style="fill:rgb(92,107,136);fill-rule:nonzero;"/>
                <path d="M53.608,51.785L124.349,51.785C124.349,12.716 92.677,-18.956 53.608,-18.956C14.538,-18.956 -17.134,12.716 -17.134,51.785C-17.134,90.854 14.538,122.526 53.608,122.526C92.677,122.526 124.349,90.854 124.349,51.785" style="fill:rgb(92,107,138);fill-rule:nonzero;"/>
                <path d="M53.608,51.785L123.475,51.785C123.475,13.198 92.195,-18.083 53.608,-18.083C15.021,-18.083 -16.26,13.198 -16.26,51.785C-16.26,90.372 15.021,121.653 53.608,121.653C92.195,121.653 123.475,90.372 123.475,51.785" style="fill:rgb(91,107,139);fill-rule:nonzero;"/>
                <path d="M53.608,51.785L122.602,51.785C122.602,13.68 91.712,-17.21 53.608,-17.21C15.503,-17.21 -15.387,13.68 -15.387,51.785C-15.387,89.89 15.503,120.779 53.608,120.779C91.712,120.779 122.602,89.89 122.602,51.785" style="fill:rgb(91,107,140);fill-rule:nonzero;"/>
                <path d="M53.608,51.785L121.729,51.785C121.729,14.163 91.23,-16.336 53.608,-16.336C15.985,-16.336 -14.514,14.163 -14.514,51.785C-14.514,89.407 15.985,119.906 53.608,119.906C91.23,119.906 121.729,89.407 121.729,51.785" style="fill:rgb(90,108,141);fill-rule:nonzero;"/>
                <path d="M53.608,51.785L120.855,51.785C120.855,14.645 90.748,-15.463 53.608,-15.463C16.468,-15.463 -13.64,14.645 -13.64,51.785C-13.64,88.925 16.468,119.033 53.608,119.033C90.748,119.033 120.855,88.925 120.855,51.785" style="fill:rgb(90,108,142);fill-rule:nonzero;"/>
                <path d="M53.608,51.785L119.982,51.785C119.982,15.127 90.265,-14.59 53.608,-14.59C16.95,-14.59 -12.767,15.127 -12.767,51.785C-12.767,88.443 16.95,118.159 53.608,118.159C90.265,118.159 119.982,88.443 119.982,51.785" style="fill:rgb(89,108,143);fill-rule:nonzero;"/>
                <path d="M53.608,51.785L119.109,51.785C119.109,15.61 89.783,-13.716 53.608,-13.716C17.432,-13.716 -11.894,15.61 -11.894,51.785C-11.894,87.96 17.432,117.286 53.608,117.286C89.783,117.286 119.109,87.96 119.109,51.785" style="fill:rgb(89,108,144);fill-rule:nonzero;"/>
                <path d="M53.608,51.785L118.235,51.785C118.235,16.092 89.3,-12.843 53.608,-12.843C17.915,-12.843 -11.02,16.092 -11.02,51.785C-11.02,87.478 17.915,116.413 53.608,116.413C89.3,116.413 118.235,87.478 118.235,51.785" style="fill:rgb(88,109,146);fill-rule:nonzero;"/>
                <path d="M53.608,51.785L117.362,51.785C117.362,16.574 88.818,-11.97 53.608,-11.97C18.397,-11.97 -10.147,16.574 -10.147,51.785C-10.147,86.996 18.397,115.539 53.608,115.539C88.818,115.539 117.362,86.996 117.362,51.785" style="fill:rgb(87,108,146);fill-rule:nonzero;"/>
                <path d="M53.608,51.785L116.489,51.785C116.489,17.057 88.336,-11.096 53.608,-11.096C18.879,-11.096 -9.274,17.057 -9.274,51.785C-9.274,86.513 18.879,114.666 53.608,114.666C88.336,114.666 116.489,86.513 116.489,51.785" style="fill:rgb(86,108,147);fill-rule:nonzero;"/>
                <path d="M53.608,51.785L115.615,51.785C115.615,17.539 87.853,-10.223 53.608,-10.223C19.362,-10.223 -8.4,17.539 -8.4,51.785C-8.4,86.031 19.362,113.793 53.608,113.793C87.853,113.793 115.615,86.031 115.615,51.785" style="fill:rgb(85,108,148);fill-rule:nonzero;"/>
                <path d="M53.608,51.785L114.742,51.785C114.742,18.021 87.371,-9.349 53.608,-9.349C19.844,-9.349 -7.527,18.021 -7.527,51.785C-7.527,85.549 19.844,112.919 53.608,112.919C87.371,112.919 114.742,85.549 114.742,51.785" style="fill:rgb(84,108,149);fill-rule:nonzero;"/>
                <path d="M53.608,51.785L113.869,51.785C113.869,18.504 86.889,-8.476 53.608,-8.476C20.326,-8.476 -6.654,18.504 -6.654,51.785C-6.654,85.066 20.326,112.046 53.608,112.046C86.889,112.046 113.869,85.066 113.869,51.785" style="fill:rgb(83,109,150);fill-rule:nonzero;"/>
                <path d="M53.608,51.785L112.995,51.785C112.995,18.986 86.406,-7.603 53.608,-7.603C20.809,-7.603 -5.78,18.986 -5.78,51.785C-5.78,84.584 20.809,111.173 53.608,111.173C86.406,111.173 112.995,84.584 112.995,51.785" style="fill:rgb(81,108,151);fill-rule:nonzero;"/>
                <path d="M53.608,51.785L112.122,51.785C112.122,19.468 85.924,-6.729 53.608,-6.729C21.291,-6.729 -4.907,19.468 -4.907,51.785C-4.907,84.102 21.291,110.299 53.608,110.299C85.924,110.299 112.122,84.102 112.122,51.785" style="fill:rgb(79,108,152);fill-rule:nonzero;"/>
                <path d="M53.608,51.785L111.249,51.785C111.249,19.951 85.442,-5.856 53.608,-5.856C21.773,-5.856 -4.033,19.951 -4.033,51.785C-4.033,83.619 21.773,109.426 53.608,109.426C85.442,109.426 111.249,83.619 111.249,51.785" style="fill:rgb(77,108,153);fill-rule:nonzero;"/>
                <path d="M53.608,51.785L110.375,51.785C110.375,20.433 84.959,-4.983 53.608,-4.983C22.256,-4.983 -3.16,20.433 -3.16,51.785C-3.16,83.137 22.256,108.553 53.608,108.553C84.959,108.553 110.375,83.137 110.375,51.785" style="fill:rgb(76,109,154);fill-rule:nonzero;"/>
                <path d="M53.608,51.785L109.502,51.785C109.502,20.915 84.477,-4.109 53.608,-4.109C22.738,-4.109 -2.287,20.915 -2.287,51.785C-2.287,82.655 22.738,107.679 53.608,107.679C84.477,107.679 109.502,82.655 109.502,51.785" style="fill:rgb(76,109,154);fill-rule:nonzero;"/>
                <path d="M53.608,51.785L108.629,51.785C108.629,21.398 83.995,-3.236 53.608,-3.236C23.22,-3.236 -1.414,21.398 -1.414,51.785C-1.414,82.172 23.22,106.806 53.608,106.806C83.995,106.806 108.629,82.172 108.629,51.785" style="fill:rgb(78,110,155);fill-rule:nonzero;"/>
                <path d="M53.608,51.785L107.755,51.785C107.755,21.88 83.513,-2.363 53.608,-2.363C23.703,-2.363 -0.54,21.88 -0.54,51.785C-0.54,81.69 23.703,105.933 53.608,105.933C83.513,105.933 107.755,81.69 107.755,51.785" style="fill:rgb(81,112,156);fill-rule:nonzero;"/>
                <path d="M53.608,51.785L106.882,51.785C106.882,22.362 83.03,-1.489 53.608,-1.489C24.185,-1.489 0.333,22.362 0.333,51.785C0.333,81.208 24.185,105.059 53.608,105.059C83.03,105.059 106.882,81.208 106.882,51.785" style="fill:rgb(84,113,157);fill-rule:nonzero;"/>
                <path d="M53.608,51.785L106.009,51.785C106.009,22.845 82.548,-0.616 53.608,-0.616C24.667,-0.616 1.207,22.845 1.207,51.785C1.207,80.725 24.667,104.186 53.608,104.186C82.548,104.186 106.009,80.725 106.009,51.785" style="fill:rgb(87,115,158);fill-rule:nonzero;"/>
                <path d="M53.608,51.785L105.135,51.785C105.135,23.327 82.065,0.257 53.608,0.257C25.15,0.257 2.08,23.327 2.08,51.785C2.08,80.243 25.15,103.313 53.608,103.313C82.065,103.313 105.135,80.243 105.135,51.785" style="fill:rgb(90,116,159);fill-rule:nonzero;"/>
                <path d="M53.608,51.785L104.262,51.785C104.262,23.809 81.583,1.131 53.608,1.131C25.632,1.131 2.953,23.809 2.953,51.785C2.953,79.761 25.632,102.439 53.608,102.439C81.583,102.439 104.262,79.761 104.262,51.785" style="fill:rgb(92,117,160);fill-rule:nonzero;"/>
                <path d="M53.608,51.785L103.389,51.785C103.389,24.292 81.101,2.004 53.608,2.004C26.114,2.004 3.827,24.292 3.827,51.785C3.827,79.278 26.114,101.566 53.608,101.566C81.101,101.566 103.389,79.278 103.389,51.785" style="fill:rgb(95,119,162);fill-rule:nonzero;"/>
                <path d="M53.608,51.785L102.515,51.785C102.515,24.774 80.618,2.877 53.608,2.877C26.597,2.877 4.7,24.774 4.7,51.785C4.7,78.796 26.597,100.693 53.608,100.693C80.618,100.693 102.515,78.796 102.515,51.785" style="fill:rgb(97,121,163);fill-rule:nonzero;"/>
                <path d="M53.608,51.785L101.642,51.785C101.642,25.256 80.136,3.751 53.608,3.751C27.079,3.751 5.573,25.256 5.573,51.785C5.573,78.314 27.079,99.819 53.608,99.819C80.136,99.819 101.642,78.314 101.642,51.785" style="fill:rgb(99,123,164);fill-rule:nonzero;"/>
                <path d="M53.608,51.785L100.768,51.785C100.768,25.739 79.654,4.624 53.608,4.624C27.561,4.624 6.447,25.739 6.447,51.785C6.447,77.831 27.561,98.946 53.608,98.946C79.654,98.946 100.768,77.831 100.768,51.785" style="fill:rgb(102,124,165);fill-rule:nonzero;"/>
                <path d="M53.608,51.785L99.895,51.785C99.895,26.221 79.171,5.497 53.608,5.497C28.044,5.497 7.32,26.221 7.32,51.785C7.32,77.349 28.044,98.072 53.608,98.072C79.171,98.072 99.895,77.349 99.895,51.785" style="fill:rgb(104,126,166);fill-rule:nonzero;"/>
                <path d="M53.608,51.785L99.022,51.785C99.022,26.703 78.689,6.371 53.608,6.371C28.526,6.371 8.193,26.703 8.193,51.785C8.193,76.866 28.526,97.199 53.608,97.199C78.689,97.199 99.022,76.866 99.022,51.785" style="fill:rgb(107,128,168);fill-rule:nonzero;"/>
                <path d="M53.608,51.785L98.148,51.785C98.148,27.186 78.207,7.244 53.608,7.244C29.008,7.244 9.067,27.186 9.067,51.785C9.067,76.384 29.008,96.326 53.608,96.326C78.207,96.326 98.148,76.384 98.148,51.785" style="fill:rgb(109,130,169);fill-rule:nonzero;"/>
                <path d="M53.608,51.785L97.275,51.785C97.275,27.668 77.724,8.117 53.608,8.117C29.491,8.117 9.94,27.668 9.94,51.785C9.94,75.902 29.491,95.452 53.608,95.452C77.724,95.452 97.275,75.902 97.275,51.785" style="fill:rgb(112,131,170);fill-rule:nonzero;"/>
                <path d="M53.608,51.785L96.402,51.785C96.402,28.15 77.242,8.991 53.608,8.991C29.973,8.991 10.813,28.15 10.813,51.785C10.813,75.419 29.973,94.579 53.608,94.579C77.242,94.579 96.402,75.419 96.402,51.785" style="fill:rgb(114,133,171);fill-rule:nonzero;"/>
                <path d="M53.608,51.785L95.528,51.785C95.528,28.633 76.76,9.864 53.608,9.864C30.455,9.864 11.687,28.633 11.687,51.785C11.687,74.937 30.455,93.706 53.608,93.706C76.76,93.706 95.528,74.937 95.528,51.785" style="fill:rgb(116,134,173);fill-rule:nonzero;"/>
                <path d="M53.608,51.785L94.655,51.785C94.655,29.115 76.277,10.737 53.608,10.737C30.938,10.737 12.56,29.115 12.56,51.785C12.56,74.455 30.938,92.832 53.608,92.832C76.277,92.832 94.655,74.455 94.655,51.785" style="fill:rgb(119,137,174);fill-rule:nonzero;"/>
                <path d="M53.608,51.785L93.782,51.785C93.782,29.597 75.795,11.611 53.608,11.611C31.42,11.611 13.433,29.597 13.433,51.785C13.433,73.972 31.42,91.959 53.608,91.959C75.795,91.959 93.782,73.972 93.782,51.785" style="fill:rgb(122,139,175);fill-rule:nonzero;"/>
                <path d="M53.608,51.785L92.908,51.785C92.908,30.08 75.313,12.484 53.608,12.484C31.902,12.484 14.307,30.08 14.307,51.785C14.307,73.49 31.902,91.086 53.608,91.086C75.313,91.086 92.908,73.49 92.908,51.785" style="fill:rgb(124,140,177);fill-rule:nonzero;"/>
                <path d="M53.608,51.785L92.035,51.785C92.035,30.562 74.83,13.358 53.608,13.358C32.385,13.358 15.18,30.562 15.18,51.785C15.18,73.008 32.385,90.212 53.608,90.212C74.83,90.212 92.035,73.008 92.035,51.785" style="fill:rgb(126,142,178);fill-rule:nonzero;"/>
                <path d="M53.608,51.785L91.162,51.785C91.162,31.044 74.348,14.231 53.608,14.231C32.867,14.231 16.053,31.044 16.053,51.785C16.053,72.525 32.867,89.339 53.608,89.339C74.348,89.339 91.162,72.525 91.162,51.785" style="fill:rgb(129,144,179);fill-rule:nonzero;"/>
                <path d="M53.608,51.785L90.288,51.785C90.288,31.527 73.866,15.104 53.608,15.104C33.349,15.104 16.927,31.527 16.927,51.785C16.927,72.043 33.349,88.466 53.608,88.466C73.866,88.466 90.288,72.043 90.288,51.785" style="fill:rgb(131,147,181);fill-rule:nonzero;"/>
                <path d="M53.608,51.785L89.415,51.785C89.415,32.009 73.383,15.978 53.608,15.978C33.832,15.978 17.8,32.009 17.8,51.785C17.8,71.561 33.832,87.592 53.608,87.592C73.383,87.592 89.415,71.561 89.415,51.785" style="fill:rgb(134,148,183);fill-rule:nonzero;"/>
                <path d="M53.608,51.785L88.542,51.785C88.542,32.491 72.901,16.851 53.608,16.851C34.314,16.851 18.674,32.491 18.674,51.785C18.674,71.078 34.314,86.719 53.608,86.719C72.901,86.719 88.542,71.078 88.542,51.785" style="fill:rgb(136,150,184);fill-rule:nonzero;"/>
                <path d="M53.608,51.785L87.668,51.785C87.668,32.974 72.419,17.724 53.608,17.724C34.796,17.724 19.547,32.974 19.547,51.785C19.547,70.596 34.796,85.846 53.608,85.846C72.419,85.846 87.668,70.596 87.668,51.785" style="fill:rgb(139,152,185);fill-rule:nonzero;"/>
                <path d="M53.608,51.785L86.795,51.785C86.795,33.456 71.936,18.598 53.608,18.598C35.279,18.598 20.42,33.456 20.42,51.785C20.42,70.114 35.279,84.972 53.608,84.972C71.936,84.972 86.795,70.114 86.795,51.785" style="fill:rgb(141,155,187);fill-rule:nonzero;"/>
                <path d="M53.608,51.785L85.922,51.785C85.922,33.938 71.454,19.471 53.608,19.471C35.761,19.471 21.294,33.938 21.294,51.785C21.294,69.631 35.761,84.099 53.608,84.099C71.454,84.099 85.922,69.631 85.922,51.785" style="fill:rgb(144,157,189);fill-rule:nonzero;"/>
                <path d="M53.608,51.785L85.048,51.785C85.048,34.421 70.972,20.344 53.608,20.344C36.243,20.344 22.167,34.421 22.167,51.785C22.167,69.149 36.243,83.226 53.608,83.226C70.972,83.226 85.048,69.149 85.048,51.785" style="fill:rgb(146,159,190);fill-rule:nonzero;"/>
                <path d="M53.608,51.785L84.175,51.785C84.175,34.903 70.489,21.218 53.608,21.218C36.726,21.218 23.04,34.903 23.04,51.785C23.04,68.667 36.726,82.352 53.608,82.352C70.489,82.352 84.175,68.667 84.175,51.785" style="fill:rgb(149,161,191);fill-rule:nonzero;"/>
                <path d="M53.608,51.785L83.301,51.785C83.301,35.385 70.007,22.091 53.608,22.091C37.208,22.091 23.914,35.385 23.914,51.785C23.914,68.184 37.208,81.479 53.608,81.479C70.007,81.479 83.301,68.184 83.301,51.785" style="fill:rgb(151,163,193);fill-rule:nonzero;"/>
                <path d="M53.608,51.785L82.428,51.785C82.428,35.868 69.525,22.964 53.608,22.964C37.69,22.964 24.787,35.868 24.787,51.785C24.787,67.702 37.69,80.605 53.608,80.605C69.525,80.605 82.428,67.702 82.428,51.785" style="fill:rgb(155,166,195);fill-rule:nonzero;"/>
                <path d="M53.608,51.785L81.555,51.785C81.555,36.35 69.042,23.838 53.608,23.838C38.173,23.838 25.66,36.35 25.66,51.785C25.66,67.22 38.173,79.732 53.608,79.732C69.042,79.732 81.555,67.22 81.555,51.785" style="fill:rgb(157,168,196);fill-rule:nonzero;"/>
                <path d="M53.608,51.785L80.681,51.785C80.681,36.832 68.56,24.711 53.608,24.711C38.655,24.711 26.534,36.832 26.534,51.785C26.534,66.737 38.655,78.859 53.608,78.859C68.56,78.859 80.681,66.737 80.681,51.785" style="fill:rgb(160,170,197);fill-rule:nonzero;"/>
                <path d="M53.608,51.785L79.808,51.785C79.808,37.315 68.078,25.584 53.608,25.584C39.137,25.584 27.407,37.315 27.407,51.785C27.407,66.255 39.137,77.985 53.608,77.985C68.078,77.985 79.808,66.255 79.808,51.785" style="fill:rgb(162,172,199);fill-rule:nonzero;"/>
                <path d="M53.608,51.785L78.935,51.785C78.935,37.797 67.595,26.458 53.608,26.458C39.62,26.458 28.28,37.797 28.28,51.785C28.28,65.773 39.62,77.112 53.608,77.112C67.595,77.112 78.935,65.773 78.935,51.785" style="fill:rgb(165,174,201);fill-rule:nonzero;"/>
                <path d="M53.608,51.785L78.061,51.785C78.061,38.279 67.113,27.331 53.608,27.331C40.102,27.331 29.154,38.279 29.154,51.785C29.154,65.29 40.102,76.239 53.608,76.239C67.113,76.239 78.061,65.29 78.061,51.785" style="fill:rgb(168,177,203);fill-rule:nonzero;"/>
                <path d="M53.608,51.785L77.188,51.785C77.188,38.762 66.631,28.204 53.608,28.204C40.584,28.204 30.027,38.762 30.027,51.785C30.027,64.808 40.584,75.365 53.608,75.365C66.631,75.365 77.188,64.808 77.188,51.785" style="fill:rgb(171,179,204);fill-rule:nonzero;"/>
                <path d="M53.608,51.785L76.315,51.785C76.315,39.244 66.148,29.078 53.608,29.078C41.067,29.078 30.9,39.244 30.9,51.785C30.9,64.326 41.067,74.492 53.608,74.492C66.148,74.492 76.315,64.326 76.315,51.785" style="fill:rgb(173,181,206);fill-rule:nonzero;"/>
                <path d="M53.608,51.785L75.441,51.785C75.441,39.726 65.666,29.951 53.608,29.951C41.549,29.951 31.774,39.726 31.774,51.785C31.774,63.843 41.549,73.619 53.608,73.619C65.666,73.619 75.441,63.843 75.441,51.785" style="fill:rgb(176,184,208);fill-rule:nonzero;"/>
                <path d="M53.608,51.785L74.568,51.785C74.568,40.209 65.184,30.824 53.608,30.824C42.031,30.824 32.647,40.209 32.647,51.785C32.647,63.361 42.031,72.745 53.608,72.745C65.184,72.745 74.568,63.361 74.568,51.785" style="fill:rgb(179,186,209);fill-rule:nonzero;"/>
                <path d="M53.608,51.785L73.695,51.785C73.695,40.691 64.701,31.698 53.608,31.698C42.514,31.698 33.52,40.691 33.52,51.785C33.52,62.879 42.514,71.872 53.608,71.872C64.701,71.872 73.695,62.879 73.695,51.785" style="fill:rgb(182,189,211);fill-rule:nonzero;"/>
                <path d="M53.608,51.785L72.821,51.785C72.821,41.173 64.219,32.571 53.608,32.571C42.996,32.571 34.394,41.173 34.394,51.785C34.394,62.396 42.996,70.999 53.608,70.999C64.219,70.999 72.821,62.396 72.821,51.785" style="fill:rgb(185,192,213);fill-rule:nonzero;"/>
                <path d="M53.608,51.785L71.948,51.785C71.948,41.656 63.737,33.445 53.608,33.445C43.478,33.445 35.267,41.656 35.267,51.785C35.267,61.914 43.478,70.125 53.608,70.125C63.737,70.125 71.948,61.914 71.948,51.785" style="fill:rgb(187,194,214);fill-rule:nonzero;"/>
                <path d="M53.608,51.785L71.075,51.785C71.075,42.138 63.254,34.318 53.608,34.318C43.961,34.318 36.141,42.138 36.141,51.785C36.141,61.432 43.961,69.252 53.608,69.252C63.254,69.252 71.075,61.432 71.075,51.785" style="fill:rgb(191,197,216);fill-rule:nonzero;"/>
                <path d="M53.608,51.785L70.201,51.785C70.201,42.62 62.772,35.191 53.608,35.191C44.443,35.191 37.014,42.62 37.014,51.785C37.014,60.949 44.443,68.379 53.608,68.379C62.772,68.379 70.201,60.949 70.201,51.785" style="fill:rgb(194,199,218);fill-rule:nonzero;"/>
                <path d="M53.608,51.785L69.328,51.785C69.328,43.103 62.29,36.065 53.608,36.065C44.925,36.065 37.887,43.103 37.887,51.785C37.887,60.467 44.925,67.505 53.608,67.505C62.29,67.505 69.328,60.467 69.328,51.785" style="fill:rgb(197,202,220);fill-rule:nonzero;"/>
                <path d="M53.608,51.785L68.455,51.785C68.455,43.585 61.807,36.938 53.608,36.938C45.408,36.938 38.761,43.585 38.761,51.785C38.761,59.985 45.408,66.632 53.608,66.632C61.807,66.632 68.455,59.985 68.455,51.785" style="fill:rgb(200,205,221);fill-rule:nonzero;"/>
                <path d="M53.608,51.785L67.581,51.785C67.581,44.068 61.325,37.811 53.608,37.811C45.89,37.811 39.634,44.068 39.634,51.785C39.634,59.502 45.89,65.759 53.608,65.759C61.325,65.759 67.581,59.502 67.581,51.785" style="fill:rgb(203,208,223);fill-rule:nonzero;"/>
                <path d="M53.608,51.785L66.708,51.785C66.708,44.55 60.843,38.685 53.608,38.685C46.372,38.685 40.507,44.55 40.507,51.785C40.507,59.02 46.372,64.885 53.608,64.885C60.843,64.885 66.708,59.02 66.708,51.785" style="fill:rgb(206,210,225);fill-rule:nonzero;"/>
                <path d="M53.608,51.785L65.834,51.785C65.834,45.032 60.36,39.558 53.608,39.558C46.855,39.558 41.381,45.032 41.381,51.785C41.381,58.538 46.855,64.012 53.608,64.012C60.36,64.012 65.834,58.538 65.834,51.785" style="fill:rgb(208,212,227);fill-rule:nonzero;"/>
                <path d="M53.608,51.785L64.961,51.785C64.961,45.515 59.878,40.431 53.608,40.431C47.337,40.431 42.254,45.515 42.254,51.785C42.254,58.055 47.337,63.138 53.608,63.138C59.878,63.138 64.961,58.055 64.961,51.785" style="fill:rgb(212,215,229);fill-rule:nonzero;"/>
                <path d="M53.608,51.785L64.088,51.785C64.088,45.997 59.396,41.305 53.608,41.305C47.819,41.305 43.127,45.997 43.127,51.785C43.127,57.573 47.819,62.265 53.608,62.265C59.396,62.265 64.088,57.573 64.088,51.785" style="fill:rgb(215,219,231);fill-rule:nonzero;"/>
                <path d="M53.608,51.785L63.214,51.785C63.214,46.479 58.913,42.178 53.608,42.178C48.302,42.178 44.001,46.479 44.001,51.785C44.001,57.091 48.302,61.392 53.608,61.392C58.913,61.392 63.214,57.091 63.214,51.785" style="fill:rgb(218,221,233);fill-rule:nonzero;"/>
                <path d="M53.608,51.785L62.341,51.785C62.341,46.962 58.431,43.051 53.608,43.051C48.784,43.051 44.874,46.962 44.874,51.785C44.874,56.608 48.784,60.518 53.608,60.518C58.431,60.518 62.341,56.608 62.341,51.785" style="fill:rgb(221,224,234);fill-rule:nonzero;"/>
                <path d="M53.608,51.785L61.468,51.785C61.468,47.444 57.949,43.925 53.608,43.925C49.266,43.925 45.747,47.444 45.747,51.785C45.747,56.126 49.266,59.645 53.608,59.645C57.949,59.645 61.468,56.126 61.468,51.785" style="fill:rgb(224,226,236);fill-rule:nonzero;"/>
                <path d="M53.608,51.785L60.594,51.785C60.594,47.926 57.466,44.798 53.608,44.798C49.749,44.798 46.621,47.926 46.621,51.785C46.621,55.644 49.749,58.772 53.608,58.772C57.466,58.772 60.594,55.644 60.594,51.785" style="fill:rgb(228,230,239);fill-rule:nonzero;"/>
                <path d="M53.608,51.785L59.721,51.785C59.721,48.409 56.984,45.671 53.608,45.671C50.231,45.671 47.494,48.409 47.494,51.785C47.494,55.161 50.231,57.898 53.608,57.898C56.984,57.898 59.721,55.161 59.721,51.785" style="fill:rgb(232,234,242);fill-rule:nonzero;"/>
                <path d="M53.608,51.785L58.848,51.785C58.848,48.891 56.502,46.545 53.608,46.545C50.714,46.545 48.367,48.891 48.367,51.785C48.367,54.679 50.714,57.025 53.608,57.025C56.502,57.025 58.848,54.679 58.848,51.785" style="fill:rgb(235,237,243);fill-rule:nonzero;"/>
                <path d="M53.608,51.785L57.974,51.785C57.974,49.373 56.019,47.418 53.608,47.418C51.196,47.418 49.241,49.373 49.241,51.785C49.241,54.197 51.196,56.152 53.608,56.152C56.019,56.152 57.974,54.197 57.974,51.785" style="fill:rgb(239,240,245);fill-rule:nonzero;"/>
                <path d="M53.608,51.785L57.101,51.785C57.101,49.856 55.537,48.292 53.608,48.292C51.678,48.292 50.114,49.856 50.114,51.785C50.114,53.714 51.678,55.278 53.608,55.278C55.537,55.278 57.101,53.714 57.101,51.785" style="fill:rgb(243,243,248);fill-rule:nonzero;"/>
                <path d="M53.608,51.785L56.228,51.785C56.228,50.338 55.055,49.165 53.608,49.165C52.161,49.165 50.987,50.338 50.987,51.785C50.987,53.232 52.161,54.405 53.608,54.405C55.055,54.405 56.228,53.232 56.228,51.785" style="fill:rgb(247,248,251);fill-rule:nonzero;"/>
                <path d="M53.608,51.785L55.354,51.785C55.354,50.82 54.572,50.038 53.608,50.038C52.643,50.038 51.861,50.82 51.861,51.785C51.861,52.75 52.643,53.532 53.608,53.532C54.572,53.532 55.354,52.75 55.354,51.785" style="fill:rgb(251,252,253);fill-rule:nonzero;"/>
                <path d="M53.608,51.785L54.481,51.785C54.481,51.303 54.09,50.912 53.608,50.912C53.125,50.912 52.734,51.303 52.734,51.785C52.734,52.267 53.125,52.658 53.608,52.658C54.09,52.658 54.481,52.267 54.481,51.785" style="fill:white;fill-rule:nonzero;"/>
            </g>
        </g>
        <g transform="matrix(1.12713,0,0,1.12713,-11.9228,-12.1477)">
            <path d="M96.637,138.965C142.309,138.965 179.335,120.201 179.335,97.056C179.335,73.91 142.309,55.146 96.637,55.146C50.965,55.146 13.94,73.91 13.94,97.056C13.94,120.201 50.965,138.965 96.637,138.965Z" style="fill:rgb(100,130,186);"/>
        </g>
        <g transform="matrix(1.12713,0,0,1.12713,-11.9228,-12.1477)">
            <path d="M113.389,110.601L117.492,89.489C118.417,84.724 117.647,81.17 115.204,78.924C112.837,76.751 108.819,75.694 102.921,75.694L95.817,75.694L97.85,65.234C97.926,64.84 97.823,64.432 97.568,64.122C97.312,63.812 96.932,63.632 96.53,63.632L86.725,63.632C86.081,63.632 85.528,64.089 85.405,64.721L81.049,87.134C80.652,84.612 79.676,82.444 78.115,80.655C75.239,77.363 70.69,75.694 64.593,75.694L45.589,75.694C44.945,75.694 44.391,76.15 44.269,76.782L35.451,122.15C35.374,122.544 35.478,122.952 35.733,123.261C35.989,123.572 36.369,123.751 36.771,123.751L46.653,123.751C47.297,123.751 47.85,123.294 47.974,122.663L50.106,111.689L57.463,111.689C61.324,111.689 64.566,111.271 67.099,110.446C69.688,109.604 72.071,108.177 74.171,106.21C75.868,104.651 77.27,102.905 78.349,101.022L76.588,110.088C76.511,110.482 76.615,110.89 76.87,111.2C77.125,111.509 77.506,111.689 77.907,111.689L87.712,111.689C88.356,111.689 88.909,111.233 89.032,110.601L93.872,85.698L100.6,85.698C103.467,85.698 104.306,86.269 104.534,86.515C104.741,86.739 105.172,87.528 104.689,90.015L100.789,110.088C100.712,110.483 100.815,110.89 101.071,111.2C101.326,111.509 101.707,111.689 102.108,111.689L112.069,111.689C112.713,111.689 113.266,111.233 113.389,110.601ZM67.932,93.158C67.316,96.322 66.156,98.579 64.483,99.868C62.783,101.177 60.063,101.841 56.4,101.841L52.02,101.841L55.188,85.543L60.85,85.543C65.011,85.543 66.687,86.432 67.36,87.177C68.293,88.212 68.49,90.28 67.932,93.158Z" style="fill:white;"/>
        </g>
        <g transform="matrix(1.12713,0,0,1.12713,-11.9228,-12.1477)">
            <path d="M154.691,80.655C151.816,77.363 147.266,75.694 141.17,75.694L122.165,75.694C121.522,75.694 120.968,76.15 120.845,76.782L112.028,122.15C111.951,122.544 112.055,122.952 112.31,123.261C112.566,123.572 112.946,123.751 113.348,123.751L123.23,123.751C123.874,123.751 124.428,123.294 124.551,122.663L126.683,111.689L134.04,111.689C137.901,111.689 141.143,111.271 143.676,110.446C146.265,109.604 148.647,108.177 150.748,106.21C152.5,104.6 153.941,102.793 155.034,100.839C156.124,98.887 156.908,96.709 157.364,94.364C158.488,88.584 157.589,83.972 154.691,80.655ZM145.069,93.158C144.454,96.322 143.293,98.579 141.62,99.868C139.919,101.177 137.201,101.841 133.538,101.841L129.157,101.841L132.325,85.543L137.987,85.543C142.148,85.543 143.824,86.432 144.497,87.177C145.43,88.212 145.628,90.28 145.069,93.158Z" style="fill:white;"/>
        </g>
        <g transform="matrix(1.12713,0,0,1.12713,-11.9228,-12.1477)">
            <path d="M60.85,84.198C64.605,84.198 67.108,84.891 68.358,86.277C69.609,87.663 69.906,90.043 69.252,93.415C68.569,96.926 67.253,99.432 65.303,100.934C63.353,102.435 60.385,103.186 56.4,103.186L50.389,103.186L54.079,84.198L60.85,84.198ZM36.771,122.407L46.653,122.407L48.998,110.345L57.463,110.345C61.198,110.345 64.27,109.953 66.683,109.167C69.095,108.383 71.288,107.068 73.261,105.221C74.917,103.699 76.257,102.019 77.283,100.183C78.308,98.348 79.036,96.323 79.467,94.108C80.512,88.73 79.724,84.541 77.102,81.54C74.48,78.539 70.31,77.039 64.593,77.039L45.589,77.039L36.771,122.407Z" style="fill:rgb(35,31,32);"/>
        </g>
        <g transform="matrix(1.12713,0,0,1.12713,-11.9228,-12.1477)">
            <path d="M86.725,64.977L96.53,64.977L94.186,77.039L102.921,77.039C108.416,77.039 112.207,77.998 114.294,79.915C116.381,81.832 117.006,84.939 116.171,89.233L112.069,110.345L102.108,110.345L106.009,90.271C106.453,87.988 106.29,86.431 105.519,85.6C104.748,84.77 103.108,84.354 100.6,84.354L92.763,84.354L87.712,110.345L77.907,110.345L86.725,64.977Z" style="fill:rgb(35,31,32);"/>
        </g>
        <g transform="matrix(1.12713,0,0,1.12713,-11.9228,-12.1477)">
            <path d="M137.987,84.198C141.742,84.198 144.244,84.891 145.495,86.277C146.745,87.663 147.043,90.043 146.389,93.415C145.706,96.926 144.39,99.432 142.44,100.934C140.49,102.435 137.522,103.186 133.538,103.186L127.526,103.186L131.216,84.198L137.987,84.198ZM113.908,122.407L123.791,122.407L126.135,110.345L134.6,110.345C138.335,110.345 141.408,109.953 143.82,109.167C146.232,108.383 148.425,107.068 150.398,105.221C152.054,103.699 153.394,102.019 154.42,100.183C155.445,98.348 156.173,96.323 156.604,94.108C157.649,88.73 156.861,84.541 154.239,81.54C151.617,78.539 147.447,77.039 141.73,77.039L122.725,77.039L113.908,122.407Z" style="fill:rgb(35,31,32);"/>
        </g>
    </g>
</svg>
