<?xml version="1.0" encoding="UTF-8" standalone="no"?><!DOCTYPE svg PUBLIC "-//W3C//DTD SVG 1.1//EN" "http://www.w3.org/Graphics/SVG/1.1/DTD/svg11.dtd"><svg width="100%" height="100%" viewBox="0 0 100 78" version="1.1" xmlns="http://www.w3.org/2000/svg" xmlns:xlink="http://www.w3.org/1999/xlink" xml:space="preserve" xmlns:serif="http://www.serif.com/" style="fill-rule:evenodd;clip-rule:evenodd;stroke-linejoin:round;stroke-miterlimit:2;"><path d="M70.516,61.076c0.283,0.018 0.587,0.053 0.892,0.053c4.313,0.004 8.63,-0.022 12.943,0.022c0.945,0.009 1.227,-0.313 1.179,-1.218c-0.062,-1.179 -0.014,-2.362 -0.014,-3.819c4.896,3.602 9.628,7.081 14.484,10.656c-4.821,3.55 -9.553,7.033 -14.484,10.666l0,-3.642c0,-1.466 0,-1.47 -1.425,-1.47l-82.735,-0c-1.333,-0 -1.333,-0 -1.333,-1.342c0,-2.909 0.04,-5.818 -0.022,-8.723c-0.022,-0.945 0.283,-1.157 1.188,-1.152c14.827,0.026 29.655,0.048 44.483,0.009c7.602,-0.022 13.601,-3.17 17.569,-9.721c7.161,-11.83 -0.304,-27.325 -14.024,-29.32c-10.595,-1.541 -20.443,5.571 -22.24,16.346c-0.189,1.122 -0.203,2.274 -0.313,3.625c1.735,-0.234 3.306,-0.451 5.085,-0.689c-2.785,5.385 -5.474,10.586 -8.202,15.856c-4.18,-4.308 -8.299,-8.55 -12.325,-12.7c1.011,-0.168 2.353,-0.362 3.682,-0.64c0.252,-0.053 0.622,-0.459 0.614,-0.693c-0.075,-2.821 0.119,-5.611 0.671,-8.378c0.017,-0.084 -0.022,-0.181 -0.049,-0.345c-2.693,-0.459 -5.191,-1.43 -7.456,-2.993c-5.535,-3.831 -8.431,-10.961 -7.072,-17.459c1.479,-7.08 6.821,-12.373 13.725,-13.68c4.476,-0.843 8.625,-0.039 12.479,2.327c0.68,0.419 1.095,0.481 1.541,-0.248c0.26,-0.428 0.653,-0.772 1.103,-1.293c0.561,2.26 1.086,4.375 1.607,6.489c0.177,0.711 0.314,1.435 0.521,2.137c0.225,0.759 -0.004,1.099 -0.808,1.046c-2.322,-0.159 -4.648,-0.3 -6.97,-0.455c-0.574,-0.04 -1.143,-0.101 -1.881,-0.172c0.574,-0.724 1.095,-1.373 1.665,-2.084c-1.254,-0.953 -2.636,-1.43 -4.075,-1.664c-6.957,-1.139 -13.088,4.207 -12.947,11.248c0.106,5.403 4.661,10.233 10.042,10.692c0.698,0.057 0.941,-0.296 1.21,-0.817c3.814,-7.319 9.557,-12.493 17.371,-15.185c18.076,-6.234 36.948,4.935 40.431,23.215c1.717,9.001 -0.239,17.22 -5.699,24.588c-0.15,0.203 -0.287,0.419 -0.419,0.636c-0.027,0.039 0.008,0.119 0.03,0.286l-0.022,0.005Z" style="fill:#fff;fill-rule:nonzero;"/></svg>